<?xml version="1.0" encoding="UTF-8"?>
<svg version="1.1" xmlns="http://www.w3.org/2000/svg" width="512" height="512">
<path d="M0 0 C1.47712212 -0.01441132 1.47712212 -0.01441132 2.98408508 -0.02911377 C4.0517662 -0.03336365 5.11944733 -0.03761353 6.21948242 -0.04199219 C7.31459641 -0.04769226 8.40971039 -0.05339233 9.53800964 -0.05926514 C11.85898876 -0.06872432 14.17998136 -0.07525275 16.50097656 -0.07910156 C20.04996238 -0.08879891 23.5983672 -0.1198109 27.1472168 -0.15136719 C29.40046856 -0.15789792 31.65372447 -0.16314811 33.90698242 -0.16699219 C35.49939507 -0.18551239 35.49939507 -0.18551239 37.12397766 -0.20440674 C43.32548307 -0.18568692 47.20235506 0.19376689 51.80932617 4.66113281 C58.14764406 12.56345122 56.26245117 14.88064264 56.26245117 27.16113281 C155.92245117 27.16113281 255.58245117 27.16113281 358.26245117 27.16113281 C358.26245117 22.21113281 358.26245117 17.26113281 358.26245117 12.16113281 C363.26245117 2.16113281 363.26245117 2.16113281 369.26245117 0.16113281 C370.87172889 0.05438038 372.48494647 0.00251663 374.09765625 -0.01586914 C375.0791011 -0.02870438 376.06054596 -0.04153961 377.07173157 -0.05476379 C378.13111435 -0.06215073 379.19049713 -0.06953766 380.28198242 -0.07714844 C381.37330978 -0.08522018 382.46463715 -0.09329193 383.58903503 -0.10160828 C385.89983534 -0.1154438 388.21065604 -0.12616833 390.52148438 -0.1340332 C394.05076904 -0.15124923 397.57911778 -0.19514178 401.1081543 -0.23925781 C403.35359012 -0.24938462 405.5990339 -0.25790076 407.84448242 -0.26464844 C408.89779251 -0.28215652 409.9511026 -0.29966461 411.03633118 -0.31770325 C417.1120747 -0.29976503 420.65700745 0.07465141 425.26245117 4.16113281 C430.39251067 10.67769487 430.42000198 16.42341878 430.43041992 24.37207031 C430.43374832 25.2584317 430.43707672 26.14479309 430.44050598 27.05801392 C430.44555728 28.92897016 430.44791486 30.79993538 430.44775391 32.67089844 C430.44993831 35.51935819 430.46810737 38.3674291 430.48706055 41.21582031 C430.48999534 43.03873566 430.49197956 44.86165284 430.49291992 46.68457031 C430.50010544 47.52958099 430.50729095 48.37459167 430.51469421 49.24520874 C430.49065511 55.52866021 430.13105427 60.87728458 426.01245117 65.91113281 C417.73380649 72.68456937 414.05982421 71.16113281 402.26245117 71.16113281 C402.26245117 172.14113281 402.26245117 273.12113281 402.26245117 377.16113281 C407.21245117 377.16113281 412.16245117 377.16113281 417.26245117 377.16113281 C423.40101118 379.28916695 426.24124256 381.23956394 429.26245117 387.16113281 C430.54747484 391.81853912 430.44139754 396.50693958 430.46557617 401.30175781 C430.47127625 402.18337585 430.47697632 403.0649939 430.48284912 403.97332764 C430.49227448 405.8358847 430.49882328 407.69845825 430.50268555 409.56103516 C430.51237078 412.38767144 430.5434091 415.21357379 430.57495117 418.04003906 C430.58148427 419.85644103 430.58673354 421.67284816 430.59057617 423.48925781 C430.60909637 424.74128998 430.60909637 424.74128998 430.62799072 426.01861572 C430.60518199 432.129366 430.0457478 439.03646089 425.81036377 443.7913208 C421.97373014 447.05474959 419.47269721 448.28205234 414.54077148 448.33813477 C413.5592511 448.35097 412.57773071 448.36380524 411.56646729 448.37702942 C409.96965118 448.38810982 409.96965118 448.38810982 408.34057617 448.39941406 C406.70146271 448.41152168 406.70146271 448.41152168 405.02923584 448.4238739 C402.71245922 448.43772301 400.39566212 448.44844145 398.07885742 448.45629883 C394.54070157 448.47349551 391.00348382 448.51737359 387.46557617 448.56152344 C385.21558305 448.57165159 382.96558197 448.58016731 380.71557617 448.58691406 C379.13090546 448.61317619 379.13090546 448.61317619 377.51422119 448.63996887 C371.42058266 448.62203624 367.89676925 448.2322331 363.26245117 444.16113281 C356.35054089 436.50198899 358.26245117 433.22796013 358.26245117 421.16113281 C258.60245117 421.16113281 158.94245117 421.16113281 56.26245117 421.16113281 C56.26245117 426.11113281 56.26245117 431.06113281 56.26245117 436.16113281 C53.74720764 441.19161988 52.31354526 443.61642548 48.26245117 447.16113281 C45.3600177 448.12861064 43.44994956 448.30367429 40.42724609 448.33813477 C39.44580124 448.35097 38.46435638 448.36380524 37.45317078 448.37702942 C36.39378799 448.38441635 35.33440521 448.39180328 34.24291992 448.39941406 C33.15159256 448.40748581 32.0602652 448.41555756 30.93586731 448.4238739 C28.625067 448.43770942 26.31424631 448.44843395 24.00341797 448.45629883 C20.4741333 448.47351485 16.94578457 448.5174074 13.41674805 448.56152344 C11.17131222 448.57165024 8.92586844 448.58016638 6.68041992 448.58691406 C5.10045479 448.61317619 5.10045479 448.61317619 3.48857117 448.63996887 C-2.58717235 448.62203066 -6.1321051 448.24761421 -10.73754883 444.16113281 C-15.86760832 437.64457075 -15.89509964 431.89884684 -15.90551758 423.95019531 C-15.90884598 423.06383392 -15.91217438 422.17747253 -15.91560364 421.26425171 C-15.92065494 419.39329546 -15.92301252 417.52233025 -15.92285156 415.65136719 C-15.92503596 412.80290744 -15.94320503 409.95483652 -15.9621582 407.10644531 C-15.96509299 405.28352996 -15.96707722 403.46061278 -15.96801758 401.63769531 C-15.97879585 400.37017929 -15.97879585 400.37017929 -15.98979187 399.07705688 C-15.96575277 392.79360542 -15.60615193 387.44498104 -11.48754883 382.41113281 C-3.20890415 375.63769626 0.46507813 377.16113281 12.26245117 377.16113281 C12.26245117 276.18113281 12.26245117 175.20113281 12.26245117 71.16113281 C7.31245117 71.16113281 2.36245117 71.16113281 -2.73754883 71.16113281 C-8.87610884 69.03309868 -11.71634022 67.08270168 -14.73754883 61.16113281 C-16.02257249 56.50372651 -15.91649519 51.81532604 -15.94067383 47.02050781 C-15.9463739 46.13888977 -15.95207397 45.25727173 -15.95794678 44.34893799 C-15.96737213 42.48638093 -15.97392094 40.62380737 -15.9777832 38.76123047 C-15.98746844 35.93459418 -16.01850676 33.10869184 -16.05004883 30.28222656 C-16.05658193 28.46582459 -16.06183119 26.64941747 -16.06567383 24.83300781 C-16.07802063 23.9983197 -16.09036743 23.16363159 -16.10308838 22.3036499 C-16.08027965 16.19289962 -15.52084546 9.28580473 -11.28546143 4.53094482 C-7.43790107 1.2582218 -4.9457583 0.03887278 0 0 Z M1.26245117 16.16113281 C1.26245117 28.70113281 1.26245117 41.24113281 1.26245117 54.16113281 C13.80245117 54.16113281 26.34245117 54.16113281 39.26245117 54.16113281 C39.26245117 41.62113281 39.26245117 29.08113281 39.26245117 16.16113281 C26.72245117 16.16113281 14.18245117 16.16113281 1.26245117 16.16113281 Z M375.26245117 16.16113281 C375.26245117 28.70113281 375.26245117 41.24113281 375.26245117 54.16113281 C387.80245117 54.16113281 400.34245117 54.16113281 413.26245117 54.16113281 C413.26245117 41.62113281 413.26245117 29.08113281 413.26245117 16.16113281 C400.72245117 16.16113281 388.18245117 16.16113281 375.26245117 16.16113281 Z M56.26245117 44.16113281 C55.93245117 48.78113281 55.60245117 53.40113281 55.26245117 58.16113281 C53.48468237 63.22093633 52.4178372 65.15979825 48.44995117 68.59863281 C44.26245117 70.16113281 44.26245117 70.16113281 29.26245117 71.16113281 C29.26245117 172.14113281 29.26245117 273.12113281 29.26245117 377.16113281 C34.21245117 377.49113281 39.16245117 377.82113281 44.26245117 378.16113281 C48.72225456 379.82523855 51.19379702 381.53196969 53.63745117 385.53613281 C55.26245117 390.16113281 55.26245117 390.16113281 56.26245117 404.16113281 C155.92245117 404.16113281 255.58245117 404.16113281 358.26245117 404.16113281 C358.59245117 399.21113281 358.92245117 394.26113281 359.26245117 389.16113281 C362.44007528 382.26114903 363.18268233 381.70101724 370.26245117 378.16113281 C375.21245117 377.83113281 380.16245117 377.50113281 385.26245117 377.16113281 C385.26245117 276.18113281 385.26245117 175.20113281 385.26245117 71.16113281 C380.31245117 70.83113281 375.36245117 70.50113281 370.26245117 70.16113281 C363.36246739 66.9835087 362.80233559 66.24090166 359.26245117 59.16113281 C358.93245117 54.21113281 358.60245117 49.26113281 358.26245117 44.16113281 C258.60245117 44.16113281 158.94245117 44.16113281 56.26245117 44.16113281 Z M1.26245117 394.16113281 C1.26245117 406.70113281 1.26245117 419.24113281 1.26245117 432.16113281 C13.80245117 432.16113281 26.34245117 432.16113281 39.26245117 432.16113281 C39.26245117 419.62113281 39.26245117 407.08113281 39.26245117 394.16113281 C26.72245117 394.16113281 14.18245117 394.16113281 1.26245117 394.16113281 Z M375.26245117 394.16113281 C375.26245117 406.70113281 375.26245117 419.24113281 375.26245117 432.16113281 C387.80245117 432.16113281 400.34245117 432.16113281 413.26245117 432.16113281 C413.26245117 419.62113281 413.26245117 407.08113281 413.26245117 394.16113281 C400.72245117 394.16113281 388.18245117 394.16113281 375.26245117 394.16113281 Z " fill="#000000" transform="translate(48.737548828125,31.8388671875)"/>
<path d="M0 0 C0.94571403 -0.00297112 1.89142805 -0.00594224 2.86580008 -0.0090034 C6.04861903 -0.01770535 9.23140043 -0.01919991 12.41423035 -0.02069092 C14.69062379 -0.02531801 16.96701645 -0.03034253 19.2434082 -0.03573608 C25.43765046 -0.0488721 31.63188186 -0.05530733 37.82613587 -0.05974674 C41.69383214 -0.06267539 45.56152543 -0.06677979 49.4292202 -0.07125092 C60.13769474 -0.083361 70.84616564 -0.09374277 81.55464649 -0.09712601 C82.5827031 -0.09745536 82.5827031 -0.09745536 83.63152854 -0.09779136 C84.31853942 -0.09800964 85.00555029 -0.09822791 85.71337968 -0.09845281 C87.10552522 -0.09889627 88.49767075 -0.09934284 89.88981628 -0.09979248 C90.92564467 -0.10012463 90.92564467 -0.10012463 91.98239889 -0.10046348 C103.17174216 -0.10441147 114.36102031 -0.1218656 125.55033842 -0.145152 C137.03817384 -0.16886669 148.52596729 -0.18106993 160.01382846 -0.18249393 C166.46387561 -0.18354332 172.91383091 -0.18947985 179.36385536 -0.20731354 C185.43031694 -0.22376011 191.4966173 -0.22596628 197.56309319 -0.21717453 C199.79074662 -0.21640234 202.0184086 -0.22077072 204.24604034 -0.23063278 C207.28523256 -0.24329957 210.32384922 -0.23750394 213.36303711 -0.22705078 C214.687802 -0.23913539 214.687802 -0.23913539 216.03932983 -0.25146413 C221.75958295 -0.20539526 226.16089257 0.60965123 230.51652527 4.67559814 C234.38825161 9.73862489 235.06249295 12.55847329 235.05168152 18.82403564 C235.05046295 19.6169249 235.04924438 20.40981415 235.04798889 21.22673035 C234.95677228 30.59892681 234.14176906 39.90291219 233.27287292 49.2300415 C232.99449093 52.22991543 232.73127506 55.2308616 232.46965027 58.23223877 C232.29475539 60.17177203 232.11900527 62.1112284 231.94230652 64.05059814 C231.8265477 65.37270042 231.8265477 65.37270042 231.70845032 66.72151184 C230.20049847 82.60915345 230.20049847 82.60915345 226.05949402 87.07794189 C225.57867371 87.62321533 225.09785339 88.16848877 224.60246277 88.73028564 C219.51067203 92.87957787 213.82287253 92.50670026 207.55949402 92.51544189 C206.6474823 92.53993408 205.73547058 92.56442627 204.79582214 92.58966064 C198.68049077 92.61596315 193.93272728 91.72118567 188.87199402 88.14044189 C181.59718728 79.52553918 182.74413276 64.60610678 181.87199402 54.14044189 C166.03199402 53.81044189 150.19199402 53.48044189 133.87199402 53.14044189 C133.87199402 106.93044189 133.87199402 160.72044189 133.87199402 216.14044189 C138.49199402 216.14044189 143.11199402 216.14044189 147.87199402 216.14044189 C153.42003746 218.32603477 156.00259517 220.95345166 158.87199402 226.14044189 C160.17767293 230.05747862 160.07410365 233.81649402 160.11027527 237.90216064 C160.11834702 238.76678421 160.12641876 239.63140778 160.13473511 240.52223206 C160.14856484 242.35385134 160.15929196 244.18549628 160.16716003 246.01715088 C160.1786613 247.88213703 160.19908368 249.74709074 160.22868347 251.61187744 C160.27155894 254.31303173 160.28755832 257.0132074 160.29777527 259.71466064 C160.3240374 260.95103523 160.3240374 260.95103523 160.35083008 262.21238708 C160.32631945 268.83561313 158.90135744 273.71227069 154.46975708 278.72727966 C147.68070664 284.20748767 137.81732905 282.81759782 129.58293152 282.73419189 C127.7927 282.73247887 126.00246597 282.73254842 124.2122345 282.73431396 C120.47162172 282.73266541 116.73161165 282.71405003 112.99113464 282.68243408 C108.20505586 282.64270037 103.41976315 282.63839844 98.63355064 282.64589691 C94.94112491 282.64897079 91.24887476 282.63683217 87.55649185 282.61976624 C85.79191311 282.61275427 84.02731448 282.60960951 82.26272202 282.61045837 C79.79536404 282.60865399 77.32893646 282.58722017 74.86174011 282.56036377 C74.13847031 282.56329437 73.4152005 282.56622498 72.67001343 282.56924438 C66.63247997 282.46821018 62.78726687 280.66395439 58.12199402 276.95294189 C53.8074458 271.55975662 53.56215567 264.93779964 53.57121277 258.23809814 C53.56692764 257.51609726 53.56264252 256.79409637 53.55822754 256.05021667 C53.55252825 254.53513632 53.55195115 253.02002862 53.55632019 251.50494385 C53.55948189 249.21173604 53.53596139 246.9198192 53.51066589 244.62677002 C53.43526561 227.39113229 53.43526561 227.39113229 59.24699402 220.20294189 C66.43650589 214.55403971 70.91589451 216.14044189 80.87199402 216.14044189 C80.87199402 162.35044189 80.87199402 108.56044189 80.87199402 53.14044189 C64.70199402 53.14044189 48.53199402 53.14044189 31.87199402 53.14044189 C31.21199402 61.06044189 30.55199402 68.98044189 29.87199402 77.14044189 C25.81533246 87.95820606 25.81533246 87.95820606 19.86027527 91.25372314 C15.39637745 92.57830459 11.06575161 92.46894486 6.43449402 92.45294189 C5.50572449 92.46905518 4.57695496 92.48516846 3.62004089 92.50177002 C-3.33958827 92.50672349 -7.70056528 91.45754438 -12.87800598 86.51544189 C-17.58333034 80.40676391 -17.54954293 71.46038027 -18.19831848 64.05059814 C-18.32724991 62.63550209 -18.32724991 62.63550209 -18.45878601 61.19181824 C-18.63813651 59.2028735 -18.81445058 57.21365284 -18.98786926 55.22418213 C-19.24962483 52.24147024 -19.52605904 49.2603754 -19.80378723 46.27911377 C-20.62463561 37.22391259 -21.32204967 28.16727663 -21.49519348 19.07403564 C-21.52162933 18.35466324 -21.54806519 17.63529083 -21.57530212 16.89411926 C-21.59823115 11.83304805 -20.27685648 9.04287268 -17.12800598 5.14044189 C-11.59180255 0.14435587 -7.21244095 -0.00702289 0 0 Z M-4.12800598 17.14044189 C-3.52093235 29.28191451 -2.88630107 41.33919551 -1.82575989 53.43804932 C-1.62282881 55.76223647 -1.42792095 58.08701532 -1.23347473 60.41192627 C-1.10503404 61.90610699 -0.97614626 63.40024936 -0.84675598 64.89434814 C-0.78943298 65.58170547 -0.73210999 66.26906281 -0.67304993 66.97724915 C-0.41379017 69.88207625 -0.05499944 72.35946152 0.87199402 75.14044189 C2.68441454 75.16731469 4.49694635 75.18677905 6.30949402 75.20294189 C7.31882996 75.21454346 8.32816589 75.22614502 9.36808777 75.23809814 C11.81220469 75.42656865 11.81220469 75.42656865 12.87199402 74.14044189 C13.13509138 72.20353341 13.34012788 70.25867896 13.52043152 68.31231689 C13.63902527 67.11993408 13.75761902 65.92755127 13.87980652 64.69903564 C14.12303445 62.17619278 14.36009592 59.65274719 14.59074402 57.12872314 C14.71191589 55.93118408 14.83308777 54.73364502 14.95793152 53.49981689 C15.06153992 52.40121338 15.16514832 51.30260986 15.27189636 50.17071533 C15.9150641 46.92295373 17.0871099 44.89598888 18.87199402 42.14044189 C18.87199402 41.48044189 18.87199402 40.82044189 18.87199402 40.14044189 C19.65574402 39.83106689 20.43949402 39.52169189 21.24699402 39.20294189 C23.7952953 38.21169151 23.7952953 38.21169151 25.87199402 37.14044189 C27.98002878 37.0384588 30.09133888 37.0020146 32.201828 36.99517822 C32.85079041 36.99181961 33.49975281 36.988461 34.16838074 36.98500061 C36.31830244 36.97548481 38.46814631 36.97354721 40.61808777 36.97247314 C42.1101993 36.96926108 43.60231052 36.96589704 45.09442139 36.96238708 C48.22414378 36.9563943 51.35383855 36.95454735 54.48356628 36.95513916 C58.49647661 36.95524081 62.50921011 36.94158651 66.52207851 36.92436695 C69.60440893 36.91325565 72.68669648 36.91121968 75.76904488 36.91174889 C77.24863863 36.91056753 78.72823345 36.90613708 80.20780754 36.89841652 C82.27625335 36.88863369 84.34431367 36.89148763 86.4127655 36.89752197 C87.59031906 36.89609695 88.76787262 36.89467194 89.98110962 36.89320374 C92.87199402 37.14044189 92.87199402 37.14044189 95.87199402 39.14044189 C97.04458455 42.65821349 97.02331974 45.83073683 97.02589417 49.49087524 C97.03246755 50.62261419 97.03246755 50.62261419 97.03917372 51.77721655 C97.05255982 54.31284496 97.05874009 56.84843862 97.06486511 59.38409424 C97.07276606 61.19906267 97.08103501 63.01402954 97.08964539 64.82899475 C97.11586046 70.79477438 97.13116983 76.76056102 97.14543152 82.72637939 C97.1507909 84.77893707 97.15616841 86.8314947 97.16156387 88.88405228 C97.18318944 97.41962513 97.20192775 105.9551961 97.21318626 114.49078941 C97.22943716 126.73126979 97.26264633 138.97143333 97.31958711 151.21179426 C97.35824661 159.81483418 97.37781406 168.4177892 97.38310683 177.02091372 C97.38676499 182.16150031 97.39883604 187.30174893 97.43120956 192.44224167 C97.46122093 197.27682348 97.46762687 202.11086157 97.45582581 206.94551659 C97.45560451 208.72047766 97.463956 210.49546347 97.48147964 212.27033806 C97.50409756 214.6928975 97.49591256 217.11347285 97.47999573 219.53604126 C97.50081886 220.59086356 97.50081886 220.59086356 97.52206266 221.66699541 C97.45976732 225.51205909 96.94533938 227.05031634 94.48421669 230.07450294 C91.68248108 232.29032275 90.51316334 232.77964507 87.00871277 232.84747314 C86.20909119 232.87559082 85.4094696 232.9037085 84.58561707 232.93267822 C83.08768616 232.94270874 83.08768616 232.94270874 81.55949402 232.95294189 C78.36261902 233.01481689 75.16574402 233.07669189 71.87199402 233.14044189 C71.54199402 243.70044189 71.21199402 254.26044189 70.87199402 265.14044189 C94.63199402 265.14044189 118.39199402 265.14044189 142.87199402 265.14044189 C142.87199402 254.58044189 142.87199402 244.02044189 142.87199402 233.14044189 C136.14146057 232.93077638 136.14146057 232.93077638 129.41007996 232.75250244 C128.56735535 232.71938965 127.72463074 232.68627686 126.85636902 232.65216064 C125.99753113 232.62597656 125.13869324 232.59979248 124.25382996 232.57281494 C121.22330817 232.0226864 120.02602835 231.36341854 117.87199402 229.14044189 C117.47274676 226.49848992 117.33574308 224.2685362 117.37078857 221.62469482 C117.36248698 220.46633786 117.36248698 220.46633786 117.35401767 219.28457975 C117.34036968 216.68868351 117.35540225 214.09374186 117.37028503 211.49786377 C117.36650335 209.64023936 117.36100456 207.78261777 117.35391235 205.92500305 C117.33992075 200.87336816 117.35115347 195.82207246 117.36762357 190.77045631 C117.3814467 185.49074646 117.37501712 180.21105685 117.37149048 174.93133545 C117.36878619 166.06397009 117.3822828 157.19673993 117.40544128 148.32940674 C117.43205237 138.06887951 117.43379892 127.80857838 117.42205292 117.54802847 C117.41128396 107.68887525 117.41745527 97.82980405 117.4316082 87.97065735 C117.43737567 83.76974048 117.43727935 79.56888347 117.4325428 75.3679657 C117.42778009 70.42346443 117.43784534 65.4792116 117.45949745 60.53475761 C117.46507514 58.71705908 117.46552166 56.89933671 117.46054459 55.08163643 C117.45461525 52.60620902 117.46705098 50.13154724 117.48431396 47.65618896 C117.47830392 46.93158462 117.47229387 46.20698028 117.46610171 45.46041822 C117.50287917 42.57360782 117.54863624 40.60833642 119.21680546 38.19451714 C121.84647868 36.51985994 124.198303 36.75856034 127.28361511 36.7522583 C128.25245888 36.74437286 128.25245888 36.74437286 129.24087524 36.73632812 C131.37597345 36.72312535 133.51032571 36.7318685 135.64543152 36.74200439 C137.13132368 36.73998323 138.61721487 36.73707143 140.10310364 36.73330688 C143.2185459 36.72888277 146.33373018 36.7353153 149.44914246 36.74932861 C153.43618081 36.76639111 157.42261201 36.756599 161.40962791 36.73861122 C164.47920776 36.72775014 167.54864466 36.73123083 170.61822891 36.7389946 C172.08779091 36.74099174 173.557366 36.7385544 175.02691269 36.73155594 C177.08548375 36.72390615 179.14308472 36.73559456 181.20158386 36.7522583 C182.95672806 36.75583847 182.95672806 36.75583847 184.74732971 36.75949097 C188.18654143 37.1787907 190.02407796 38.23709483 192.87199402 40.14044189 C193.53199402 40.14044189 194.19199402 40.14044189 194.87199402 40.14044189 C198.91861733 47.71437538 199.31702704 56.28138362 199.99699402 64.70294189 C200.08336121 65.7116333 200.16972839 66.72032471 200.25871277 67.75958252 C200.46855612 70.21941293 200.67104367 72.67986902 200.87199402 75.14044189 C204.83199402 75.14044189 208.79199402 75.14044189 212.87199402 75.14044189 C214.26845926 65.26390115 215.41262735 55.39322972 216.30461121 45.45904541 C216.49849926 43.31126774 216.70064896 41.16436692 216.90324402 39.01739502 C217.03134416 37.61444543 217.15896543 36.21145201 217.28605652 34.80841064 C217.39901062 33.57373047 217.51196472 32.33905029 217.62834167 31.06695557 C217.91589378 26.4329871 217.87199402 21.78332354 217.87199402 17.14044189 C144.61199402 17.14044189 71.35199402 17.14044189 -4.12800598 17.14044189 Z " fill="#000000" transform="translate(149.1280059814453,114.85955810546875)"/>
</svg>
